<svg xmlns="http://www.w3.org/2000/svg" enable-background="new 0 0 64 64" viewBox="0 0 64 64" id="stocks-sell-chart"><polygon fill="#d44137" points="14.21 62.75 3.6 62.75 3.6 46.75 8.98 43.16 14.21 46.75"></polygon><polygon fill="#489843" points="30.66 62.75 20.27 62.75 20.27 33.44 25.61 29.63 30.66 33.44"></polygon><polygon fill="#1992c9" points="47.4 62.74 36.87 62.74 36.87 28.18 42.17 24.55 47.4 28.18"></polygon><polygon fill="#f3870b" points="64 62.72 53.46 62.72 53.46 21.44 58.84 17.67 64 21.44"></polygon><polygon fill="#0197f3" points="46.8 1.25 46.8 3.8 51.7 3.8 40.76 14.17 34.67 7.79 20.74 21.41 14.23 15.04 0 28.95 1.54 30.46 14.23 18.04 20.74 24.41 34.61 10.85 40.68 17.21 53.32 5.23 53.32 9.75 55.92 9.75 55.92 1.25"></polygon></svg>