<svg width="128px" height="128px" viewBox="0 0 128 128" version="1.1" xmlns="http://www.w3.org/2000/svg">
    <!-- Define the glass gradient -->
    <defs>
        <linearGradient id="glassGradient" x1="0%" y1="0%" x2="100%" y2="100%">
            <stop offset="0%" style="stop-color:#FFFFFF;stop-opacity:0.25" />
            <stop offset="100%" style="stop-color:#FFFFFF;stop-opacity:0" />
        </linearGradient>
    </defs>
    <!-- Glass background -->
    <circle cx="64" cy="64" r="60" fill="url(#glassGradient)" />
    <!-- Bitcoin icon -->
    <circle cx="64" cy="48" r="24" fill="#FFA78F" />
    <path d="M64,80c-22.1,0-40,17.9-40,40h80C104,97.9,86.1,80,64,80z" fill="#F23E2C" />
    <!-- Bitcoin symbol -->
    <path d="M64,32c-19.9,0-36,16.1-36,36s16.1,36,36,36s36-16.1,36-36S83.9,32,64,32z M72,64H56v-4h16V64z M72,60H56v-4h16V60z M72,56H56v-4h16V56z" fill="#FFF"/>
    <path d="M72,68H56v4h16V68z M72,72H56v4h16V72z M72,76H56v4h16V76z" fill="#F23E2C"/>
</svg>
