<svg width="108px" height="110px" viewBox="0 0 108 110" xmlns="http://www.w3.org/2000/svg">
    <!-- Background circle -->
    <circle cx="54" cy="55" r="52" fill="#26AB5B" />
    <!-- Checkmark shape -->
    <path d="M23,15 L59,15 C66,15 72,17 76,22 C80,26 82,32 82,39 L82,73 C82,80 80,86 76,90 C72,94 66,97 59,97 L23,97 C16,97 10,94 6,90 C2,86 0,80 0,73 L0,39 C0,32 2,26 6,22 C10,18 16,15 23,15 Z" fill="#72DC60" />
    <!-- Checkmark symbol -->
    <path d="M36 26 L11 51 L7 47 L33 22 L36 26 Z" fill="#FFFFFF" />
</svg>
