<svg xmlns="http://www.w3.org/2000/svg" enable-background="new 0 0 50 50" viewBox="0 0 50 50" id="Team"><path fill="#53d86a" d="M37.1,4.9c-3.6,2.7-3.9,5.9-0.9,9.9c7.8-5.4,8.2-8.6,1.2-9.9H37.1z" class="colorf5d08a svgShape"></path><path fill="#53d86a" d="M39.8 6.7c-.3 0-.5.2-.7.5 0 .1-.1.2-.1.2v.2c0 .2-.1.4-.1.7 0 .1 0 .2-.1.3 0 .1 0 .2-.1.2-.1.2-.2.4-.2.5l-.1.2c0 .1 0 .1 0 .2 0 .2.1.4.2.5.2.2.4.2.6.3.2 0 .2-.1.4-.2.1-.1.2-.2.2-.2.1 0 .1-.1.2-.2.1-.1.1-.1.1-.2.2-.3.3-.6.4-1 .1-.2.2-.5.2-.8 0-.1.1-.2.1-.2S41 7.7 41 7.5c0-.3-.1-.5-.2-.6-.1-.1-.2-.1-.3-.2-.2 0-.2-.1-.4 0C40 6.7 39.8 6.7 39.8 6.7M37.3 16.5c-1.1.1-1.5.7-1.4 1.8L36.7 33c3.2.2 4.9-3.9 5.1-12.3C42.7 19.5 41.2 18.2 37.3 16.5L37.3 16.5z" class="colorf5d08a svgShape"></path><path fill="#53d86a" d="M36.4,29.2l-5,2.6c-0.5,6.9-0.2,9.8,1.1,8.7C37.1,33.3,38.4,29.5,36.4,29.2L36.4,29.2z" class="colorf5d08a svgShape"></path><path fill="#53d86a" d="M36.7,37.9c-0.4,0-0.7,0.2-0.8,0.6l-0.1,0.6c0,0.2,0,0.2,0.1,0.3c0,0.1,0,0.2,0,0.3V40c0,0.5,0,1-0.1,1.2
			c-0.2,1.2-0.4,2.3-0.5,3.3l-0.2,0.6c-0.1,0.3-0.2,0.5-0.2,0.5l-0.1,0.3c-0.2,0.2-0.4,0.3-0.6,0.3c-0.1,0-0.2,0-0.2-0.1L33.9,46
			l-0.3-0.8c-0.1-0.2-0.2-0.4-0.2-0.6c0-0.1-0.1-0.3-0.2-0.8c-0.1-0.5-0.2-0.8-0.2-0.8L33,42.7c0-0.3-0.1-0.5-0.1-0.6v-0.4
			c0.1-0.3,0.1-0.7,0.1-1.1c0,0,0-0.3-0.1-0.8c-0.1-0.5-0.2-0.9-0.2-1.1c-0.2-0.3-0.4-0.5-0.8-0.5c-0.4,0.1-0.6,0.2-0.7,0.5
			c0,0.1,0,0.2,0,0.3c0.2,0.5,0.2,1,0.2,1.4c0,0.4,0,0.8-0.1,1.1v0.5c0,0.2,0.1,0.4,0.1,0.7l0.1,0.5c0,0.1,0.1,0.3,0.2,0.8l0.2,0.5
			c0,0.1,0,0.2,0.1,0.3l0.3,0.9l0.3,0.6c0.2,0.2,0.2,0.5,0.4,0.6c0.3,0.4,0.8,0.5,1.2,0.5c0.6-0.1,1.1-0.2,1.4-0.5
			c0.5-0.5,0.7-0.7,0.7-0.8c0.2-0.2,0.3-0.5,0.4-1l0.2-0.8c0.2-1,0.3-2.1,0.5-3.3c0-0.1,0-0.3,0.1-0.6c0-0.7,0-1.1,0.1-1.2
			c0-0.4,0-0.6-0.1-0.7c0-0.2,0-0.3,0-0.5c0-0.1,0-0.2-0.1-0.2C37.3,38,37,37.9,36.7,37.9" class="colorf5d08a svgShape"></path><path fill="#53d86a" d="M36.7,31.7c-4.8,7.2-5.6,13-2.1,17.2c0.8-0.4,1.4-1,1.5-1.8l1-15.3L36.7,31.7z" class="colorf5d08a svgShape"></path><path fill="#53d86a" d="M40.8,26.9c-4.5,5.9-6,10-4.5,12.3c4.2-2.3,5.9-6.4,5-12.2L40.8,26.9z" class="colorf5d08a svgShape"></path><path fill="#53d86a" d="M39.3,18.3L39.3,18.3 M38.8,17.2c-1.6,1.3-0.8,1.9,2.3,1.8l-0.5,10.1l2.7,1.9c2.7,1.8,3.8-0.8,3.2-8
			c-0.2-4.3-2.7-6.2-7.6-5.8H38.8z" class="colorf5d08a svgShape"></path><path fill="#53d86a" d="M46,20.9c-0.5,0.1-0.8,0.3-0.8,0.8c0,0.1,0,0.2,0.1,0.2c0.2,0.4,0.3,0.8,0.4,1.1l0.2,1l0.2,1.2l0.1,1.1
			c0,0.4,0,0.6,0,0.6v0.4c0,0,0,0.3,0,0.9v0.3c-0.4-0.2-0.7-0.2-0.9,0.2c-0.1,0.1-0.2,0.2-0.2,0.2c-0.2,0.2-0.2,0.5-0.3,0.8
			c-0.3,0.7-0.5,1.1-0.6,1.1c0,0-0.1-0.2-0.1-0.5c0-0.5-0.1-1-0.2-1.2c0-0.2-0.1-0.4-0.1-0.5c-0.1-0.5-0.2-0.7-0.5-0.8
			c-0.8-0.4-1.3,0.2-1.5,1.7c0,0.2,0,0.3,0,0.5l0.1,0.6l0.1,0.8c0.1,0.4,0.2,0.7,0.3,0.9s0.2,0.4,0.3,0.5l0.4,0.5
			c0.1,0.1,0.2,0.2,0.2,0.2c0.3,0.2,0.8,0.4,1.2,0.5c0.4,0,0.8-0.1,1.1-0.2c0.4-0.2,0.7-0.4,0.9-0.7c0.2-0.2,0.3-0.4,0.4-0.6
			c0.2-0.3,0.3-0.7,0.5-1.2c0.2-0.7,0.4-1.3,0.4-1.8l0.1-1c0-0.7,0-1,0-0.9c0-0.2,0-0.4,0-0.4v-0.7l-0.1-1.3l-0.2-1.3
			c-0.2-0.8-0.5-1.7-0.8-2.4C46.5,21.1,46.3,20.9,46,20.9" class="colorf5d08a svgShape"></path><path fill="#53d86a" d="M43.3 33.8C43.3 33.9 43.3 33.9 43.3 33.8M43.6 32.4c-.2 0-.5.1-.6.3-.2.2-.2.5-.1.7 0 .1.1.2.2.2.1.1.2.2.2.2.1.1.2.2.2.2l.2.3c.1.2.2.2.2.3.2.2.4.2.6.2.1 0 .2 0 .4-.1.1 0 .2-.1.3-.2.2-.1.4-.2.5-.5s.3-.4.4-.6c.1-.2.1-.3 0-.5-.2-.3-.4-.5-.8-.5s-.6.2-.7.6l-.3-.4-.1-.1-.2-.2C43.9 32.5 43.8 32.4 43.6 32.4M41.4 28.7l-2.8 6.6c-.6 6.7.2 9.4 2.3 8 1.4-2.1 1.7-7 .9-14.5L41.4 28.7z" class="colorf5d08a svgShape"></path><path fill="#53d86a" d="M38.3,39.8L38.3,39.8 M38.4,38.3c-0.5,0-1,0.2-1.3,0.6C37,39,37,39.1,36.9,39.2c-0.1,0.1-0.1,0.2-0.2,0.3
			c-0.1,0.2-0.2,0.3-0.2,0.4c-0.1,0.3-0.2,0.5-0.2,0.5c0,0.2,0,0.3,0,0.4c0.1,0.2,0.2,0.4,0.5,0.5c0.2,0.1,0.5,0.1,0.7,0
			c0.2-0.1,0.2-0.2,0.3-0.3c0-0.1,0.1-0.1,0.1-0.2c0-0.1,0-0.2,0-0.2c0.1-0.2,0.1-0.2,0.1-0.3c0.1-0.2,0.2-0.3,0.2-0.5
			c0.1,0.2,0.2,0.5,0.2,0.6c0,0.1,0.1,0.3,0.1,0.5c0,0.2,0,0.5,0.1,0.5c0,0.2,0.1,0.3,0.1,0.4c0.2,0.3,0.4,0.5,0.7,0.5
			c0.4,0,0.6-0.2,0.8-0.6c0-0.1,0-0.2,0-0.2l-0.1-0.3c0-0.2,0-0.5-0.1-0.8c0-0.2-0.1-0.4-0.1-0.5c0-0.2-0.2-0.5-0.4-1
			c-0.1-0.2-0.2-0.2-0.2-0.4C39,38.4,38.7,38.3,38.4,38.3" class="colorf5d08a svgShape"></path><path fill="#53d86a" d="M40.5,34.2c-0.4,0-0.6,0.2-0.8,0.6c0,0.1-0.1,0.2-0.1,0.5l-0.1,0.4c0,0.1,0,0.2-0.1,0.3
			c0,0.2-0.1,0.5-0.1,0.9l-0.1,0.6c0,0.2-0.1,0.5-0.1,0.8c0,0.2,0,0.3,0,0.5l0.1,2.1c0,0.1,0,0.2,0,0.2c0,0.1,0,0.2,0,0.5
			c0,0,0,0.1-0.1,0.2l0,0c0,0.1,0,0.1,0,0.2c0,0.1,0,0.2,0,0.2c0.1,0.4,0.3,0.6,0.8,0.7c0.5,0,0.8-0.5,0.9-1.4c0-0.2,0-0.3,0-0.5
			l-0.2-2.3c0-0.2,0-0.3,0-0.4c0-0.4,0.1-0.6,0.1-0.8l0.1-0.5c0.1-0.4,0.1-0.7,0.1-0.8c0,0,0-0.1,0-0.2c0.1-0.2,0.1-0.4,0.2-0.5
			c0-0.1,0-0.2,0-0.3c0-0.1,0-0.2,0.1-0.2c0-0.1,0-0.1,0-0.2c0-0.2-0.1-0.4-0.2-0.5C40.8,34.2,40.7,34.2,40.5,34.2" class="colorf5d08a svgShape"></path><path fill="#53d86a" d="M39.5 36.7c-.1 0-.2 0-.3.1 0 0-.2.1-.4.2l-.2.1-.2.2c-.2.1-.4.3-.8.6-.2.2-.3.3-.5.5-.2.2-.2.5 0 .8s.4.4.7.4c.2 0 .3-.1.5-.2l.1-.1.2-.3.4-.3.3-.2c0 0 .2-.1.3-.2l.2-.2C39.9 38 40 38 40 37.9c.2-.2.2-.5 0-.8C40 36.9 39.8 36.7 39.5 36.7M41.8 38.5c-3.4 1.3-4 4.8-1.7 10.3 2-1.9 2.8-5.3 2.1-10.2L41.8 38.5z" class="colorf5d08a svgShape"></path><path fill="#fe9526" d="M12.7,16.1c-0.2,0-0.5,0.1-0.6,0.3S11.9,16.8,12,17c0.1,0.2,0.2,0.3,0.3,0.4c0.1,0.1,0.2,0.1,0.2,0.1
			c0.2,0,0.4,0.1,0.5,0.2l0.5,0.4l0.2,0.2c0,0.1,0,0.2,0,0.3c-0.1,0.5-0.2,0.8-0.2,0.9l-0.5,1.4l-0.2,0.7l-0.2,0.6l-0.1,0.4L12.3,23
			c-0.1,0.3-0.1,0.5-0.2,0.7L12,24.4L12,24.8l-0.1,0.4l-0.2,0.8c-0.1,0.2-0.1,0.4-0.1,0.5c0,0.1,0,0.2,0,0.3c0,0.2,0,0.3,0,0.4v0.5
			l0.1,0.7c0.1,0.6,0.1,1.1,0.2,1.4c0,0.2,0.1,0.4,0.2,0.7l0.1,0.5l0.2,0.6c0.2,0.4,0.4,0.5,0.8,0.5c0.5,0,0.7-0.3,0.8-0.8
			c0-0.1,0-0.2,0-0.2c-0.1-0.4-0.2-0.8-0.2-1.1l-0.3-0.5l-0.1-0.7c-0.1-0.6-0.1-1.1-0.2-1.4V27v-0.2c0-0.2,0-0.3,0-0.3l0.2-0.8
			c0-0.1,0.1-0.2,0.1-0.4l0.1-0.3c0.1-0.2,0.1-0.3,0.1-0.4l0.2-0.8c0-0.2,0.1-0.4,0.2-0.6l0.1-0.4l0.1-0.4c0.1-0.3,0.2-0.5,0.2-0.6
			l0.2-0.5l0.5-1.2c0.1-0.2,0.1-0.3,0.2-0.5c0-0.1,0.1-0.3,0.2-0.8c0-0.1,0-0.2,0-0.5c0-0.3-0.1-0.5-0.2-0.8c0-0.1-0.2-0.3-0.5-0.7
			C13.9,16.4,13.3,16.1,12.7,16.1" class="colord6ce83 svgShape"></path><path fill="#fe9526" d="M7.7,28.4c-0.2,1.3-0.3,1.4-0.2,0.4 M9.2,15.9c-1.5-1.7-3.8,1.4-6.8,9.5c0.8,7.4,2.5,9.5,4.9,6.4
			c-0.2,5.3,0.2,7.4,1.1,6.3l1.7-0.4c-0.5-2.9,0.8-9.1,3.9-18.7C14.5,17,13,16,9.6,16L9.2,15.9z" class="colord6ce83 svgShape"></path><path fill="#fe9526" d="M12.3,29c-0.4,0-0.6,0.2-0.8,0.5c0,0.1-0.1,0.2-0.1,0.4c-0.3,1-0.5,1.4-0.5,1.5c0-0.1-0.2,0.8-0.5,2.7
			c0,0.1,0,0.2-0.1,0.5c0,0.5,0,1.1-0.1,1.9v1.8c-0.1,0.8-0.1,1.5-0.1,2.2c0-0.1,0,0.4-0.1,1.2c0,0.8,0,1.1-0.1,1.3
			c-0.1,0.7-0.2,1.1-0.2,1.2c-0.1,0.5-0.2,0.8-0.4,0.8c-0.1-0.1-0.2-0.2-0.2-0.5c-0.1-0.4-0.2-0.7-0.2-0.8l-0.2-1.1
			c-0.1-0.2-0.2-0.5-0.2-1.2c-0.1-1-0.2-1.5-0.2-1.4v-0.8l-0.1-0.5v-0.6l-0.2-1.9v-0.8l0.1-2.1c0-0.2,0-0.3,0.1-0.5
			c0.1-0.1,0.1-0.2,0.1-0.3c0-0.1,0-0.2,0-0.3c-0.2-0.5-0.5-0.7-1-0.5c-0.4,0.1-0.6,0.5-0.7,1.1C7,33,7,33.2,7,33.4
			c0,0.6,0,1.2-0.1,1.7c0,0.2,0,0.6,0,1.2L7,38.2c0,0.5,0,0.8,0.1,1.1v0.8c0,0,0.1,0.5,0.2,1.4l0.2,1L7.5,43l0.2,1l0.2,0.8
			c0,0.1,0.1,0.2,0.2,0.4c0.2,0.3,0.3,0.6,0.5,0.8c0.2,0.3,0.6,0.5,1.1,0.5c0.5,0,0.9-0.3,1.3-0.8c0.2-0.3,0.5-0.8,0.6-1.7
			c0.1-0.5,0.1-0.8,0.2-1.1c0-0.2,0-0.6,0.1-1.3l0.1-1.2v-1.1l0.1-1.1c0-0.7,0-1.3,0-1.7c0.1-0.7,0.1-1.4,0.1-2l0.4-2.1l0.1-0.5
			l0.5-1.4C13,30,13,29.8,13,29.8C13,29.3,12.7,29.1,12.3,29" class="colord6ce83 svgShape"></path><path fill="#fe9526" d="M8.9,44.2L8.9,44.2c-0.1,0-0.2,0-0.2,0.1s-0.2,0.1-0.2,0.2C8.6,44.2,8.7,44.2,8.9,44.2 M11.9,29.1
			c-0.4,0-0.6,0.2-0.7,0.5c-0.1,0.2-0.2,0.5-0.2,0.6c0,0.1-0.1,0.5-0.3,1.5L10.5,33c-0.2-0.3-0.4-0.5-0.8-0.4
			c-0.4,0.1-0.5,0.2-0.6,0.6c0,0.1,0,0.3,0,0.6c-0.1,1.1-0.2,1.9-0.2,2.5c0,0-0.1,0.4-0.2,1.3c0,0.2,0,0.3,0,0.4
			c0,1.1-0.1,1.6-0.1,1.7c0,0.2-0.1,0.8-0.2,1.7l-0.1,0.8V44c-0.1,0.4-0.1,0.6-0.1,0.7c0,0.1,0,0.1-0.1,0.2c0,0.1,0,0.1,0,0.2
			c0.1,0.5,0.4,0.8,0.8,0.8c0.2,0,0.4-0.1,0.5-0.2c0.2-0.2,0.2-0.5,0.2-0.8c0.4,0,0.6-0.2,0.7-0.6c0-0.2,0-0.4,0-0.5s0-0.4-0.1-0.7
			l-0.1-0.6c0-0.1,0-0.3,0-0.8c0-0.3,0.1-0.7,0.2-1.4c0-0.1,0-0.2,0.1-0.2c0.1-0.3,0.2-0.5,0.2-0.6c0-0.1,0-0.2,0.1-0.5l0.2-0.7
			c0.2-0.8,0.2-1.3,0.2-1.2l0.4-1.6c0,0,0.1-0.5,0.2-1.3l0.5-2l0.3-1.5l0.2-0.8c0-0.2-0.1-0.4-0.2-0.6
			C12.3,29.2,12.1,29.1,11.9,29.1" class="colord6ce83 svgShape"></path><path fill="#fe9526" d="M11.7,27.2L10,45.4c-0.8-7.6-1.8-10.5-3.2-8.8c-0.1,5.8,0.8,9.2,2.3,10.2c5-5.3,6-11.7,3-19.3L11.7,27.2z" class="colord6ce83 svgShape"></path><path fill="#fe9526" d="M14.1,23.3c-0.1,0.1-0.2,0.2-0.5,0.2C13.8,23.5,13.9,23.4,14.1,23.3 M13.6,22c-0.5,0-0.8,0.3-0.8,0.9
			c0,0,0,0.2,0,0.5c-0.1,0.7-0.1,1.1-0.1,1.3c0,0.5,0,1,0,1.3l-0.1,1c0,0.2,0,0.2,0,0.4l0.1,1.6l0.1,0.8c0.1,0.3,0.1,0.8,0.2,1.4
			c-0.3,0.1-0.5,0.4-0.5,0.8l0.1,0.8l0.1,0.5l0.2,1c0,0.1,0,0.2,0.1,0.2l0.1,1.3V37c0,0.2,0.1,0.4,0.1,0.6c0,0.1,0.1,0.2,0.1,0.2
			c0.3,0.5,0.5,0.8,0.5,1c0.1,0.1,0.1,0.2,0.2,0.2c0,0.1,0.1,0.2,0.2,0.4l0.5,1c0.2,0.3,0.4,0.4,0.6,0.4c0.6-0.1,0.8-0.4,0.8-0.9
			c0-0.1,0-0.2-0.1-0.3c-0.3-0.8-0.5-1.3-0.5-1.6c0-0.1-0.1-0.5-0.2-1.4c0,0.1-0.1-0.4-0.1-1.2l-0.2-2c0-0.1,0-0.5-0.1-0.9
			c0-0.1,0-0.2,0-0.4c0-0.1,0-0.2-0.1-0.3c-0.1-0.4-0.2-0.6-0.2-0.8l-0.2-2.3l0-1.4l0.1-1.2c0-0.1,0-0.3,0-0.6v-0.8
			c0-0.1,0-0.5,0.1-1.1c0-0.2,0-0.3,0-0.3c0.1-0.2,0.2-0.3,0.2-0.5C14.3,22.3,14,22,13.6,22" class="colord6ce83 svgShape"></path><path fill="#fe9526" d="M14.1,28.3c-0.2,0-0.5,0.1-0.6,0.3c-0.2,0.2-0.2,0.4-0.2,0.7l0.3,0.7l0.2,0.7c0.5,1.4,0.8,2.4,0.8,2.9
			c0.1,0.3,0.2,0.5,0.3,0.8l0.2,0.8c0,0.1,0.2,0.5,0.5,1.5c0.1,0.2,0.1,0.3,0.2,0.5l0.2,0.7c0,0.2,0.1,0.3,0.1,0.4
			c0.2,0.7,0.6,1,1,0.9c0.2,0,0.5-0.1,0.6-0.3c0.2-0.2,0.2-0.4,0.2-0.7c0-0.1-0.1-0.2-0.2-0.5l-0.1-0.2c0,0-0.1-0.2-0.1-0.6
			c0-0.1-0.1-0.2-0.1-0.2L17,36.1c-0.2-0.9-0.4-1.4-0.5-1.4l-0.2-0.8L16.1,33c-0.1-0.5-0.4-1.4-0.8-2.9l-0.2-0.6l-0.2-0.7
			C14.7,28.5,14.5,28.3,14.1,28.3" class="colord6ce83 svgShape"></path><path fill="#fe9526" d="M15,32.4c-0.3,0-0.5,0.2-0.6,0.4c-0.2,0.2-0.2,0.5-0.1,0.8c0,0,0.1,0.5,0.4,1.7c0,0.1,0.2,0.7,0.5,1.7
			c0.1,0.2,0.1,0.5,0.2,0.6c0.1,0.5,0.2,0.8,0.2,1c0,0.2,0,0.3,0.1,0.5v0.6c0,0.1,0,0.2,0,0.2l0.1,0.3c0,0.3,0.1,0.4,0.1,0.4
			c0,0.1,0.1,0.2,0.1,0.5c0,0.1,0.1,0.3,0.3,0.8c0,0.1,0.1,0.2,0.1,0.2c0.2,0.2,0.4,0.3,0.6,0.3s0.5-0.1,0.6-0.3
			c0.2-0.2,0.2-0.4,0.2-0.6c0-0.1,0-0.1-0.1-0.2l-0.2-0.6c0-0.1-0.1-0.2-0.1-0.4c0-0.3-0.1-0.5-0.1-0.7c0-0.5-0.1-0.9-0.1-1.3
			c0-0.2-0.1-0.5-0.2-0.9c-0.1-0.3-0.1-0.5-0.2-0.8c-0.1-0.2-0.2-0.7-0.4-1.4c-0.1-0.2-0.1-0.4-0.2-0.5l-0.3-1.4
			c0-0.1,0-0.2-0.1-0.3V33C15.6,32.7,15.4,32.4,15,32.4" class="colord6ce83 svgShape"></path><path fill="#fe9526" d="M14.8,35.2c-0.4,0-0.6,0.2-0.8,0.6c-0.1,0.2-0.1,0.3-0.1,0.5c0,0.3,0,0.5,0.1,0.8c0.1,0.3,0.2,0.6,0.2,1.1
			c0.5,1.7,0.7,2.5,0.7,2.5c0.1,0.3,0.2,0.8,0.4,1.7c0,0,0.1,0.3,0.2,0.8c0.1,0.2,0.2,0.4,0.4,0.6c0.2,0.1,0.3,0.2,0.5,0.2
			c0.2,0,0.5-0.1,0.6-0.3c0.2-0.2,0.2-0.4,0.2-0.6c0-0.2-0.1-0.3-0.2-0.4L16.7,42c0-0.1-0.1-0.2-0.1-0.2l-0.2-1
			c-0.1-0.2-0.1-0.4-0.2-0.5c-0.1-0.2-0.3-1.1-0.7-2.6c0-0.2-0.1-0.3-0.2-0.6c-0.1-0.5-0.2-0.7-0.2-0.8c0.2-0.2,0.2-0.5,0.1-0.7
			C15.5,35.4,15.2,35.2,14.8,35.2" class="colord6ce83 svgShape"></path><path fill="#fe9526" d="M15,36.4c-0.6,0-0.9,0.6-0.8,1.7c0.1,0.6,0.1,0.9,0.2,1.1c0.1,0.2,0.2,0.5,0.3,1.1
			c0.2,0.3,0.4,0.5,0.7,0.5c0.2,0,0.4-0.1,0.5-0.2c0.2-0.2,0.2-0.4,0.2-0.6c0-0.1,0-0.1,0-0.2c-0.2-0.5-0.3-0.8-0.3-1
			c-0.1-0.5-0.1-0.8-0.1-0.9c0-0.1,0-0.1,0-0.2v-0.2c0.1-0.1,0.1-0.2,0.1-0.3c0-0.1,0-0.2,0-0.3C15.6,36.5,15.3,36.4,15,36.4" class="colord6ce83 svgShape"></path><path fill="#fe9526" d="M15.3,30.1c-1.1,1-0.4,2,2.2,3.2l-2,11.1c-0.3,0.4,0.3,0.8,1.9,1.3l2-13.1l-3.9-2.4H15.3z" class="colord6ce83 svgShape"></path><path fill="#fe9526" d="M13.9,37.7c-0.2,0-0.5,0.1-0.6,0.3c-0.2,0.2-0.2,0.4-0.2,0.6c0,0.1,0,0.2,0,0.2l0.3,1.4l0.1,0.3
			c0.1,0.3,0.2,0.6,0.2,0.9l0.1,0.4c0.1,0.5,0.2,0.8,0.2,0.9l0.2,1.1l0.2,0.5l0.2,0.8c0,0,0.2,0.3,0.4,0.8c0.5,0.6,0.8,0.8,1.2,0.8
			c0.3,0,0.6-0.1,0.8-0.3c0.4-0.3,0.5-0.7,0.6-1c0.1-0.2,0.1-0.6,0-1.4c0-0.6-0.1-1.5-0.2-2.6c0-0.4,0-0.8,0-1c0-0.1,0-0.1,0-0.2
			c-0.1-0.4-0.4-0.5-0.8-0.6c-0.4,0-0.6,0.2-0.8,0.5c0,0.1,0,0.2,0,0.2v1c0.2,2,0.3,3.2,0.2,3.4c-0.1-0.1-0.1-0.2-0.2-0.2
			c0-0.1-0.1-0.2-0.1-0.2l-0.2-0.5l-0.2-1.1l-0.2-1.3l-0.5-2.9c0.1-0.2,0.1-0.3,0-0.5C14.5,37.8,14.3,37.7,13.9,37.7" class="colord6ce83 svgShape"></path><path fill="#fe9526" d="M15.4,39.8c-0.2,0-0.4,0.1-0.5,0.2c-0.2,0.2-0.2,0.3-0.2,0.5c0,0.1,0,0.2,0,0.2l0.1,0.5
			c0,0.1,0.1,0.3,0.2,0.8c0,0.1,0,0.2,0.1,0.2l0.1,0.5c0,0.3,0,0.6,0,1c0,0.1,0,0.2,0.1,0.5c0,0.2,0,0.5,0.1,0.8
			c0,0.1,0,0.2,0.1,0.2l0.2,0.4l0.2,0.3l0.1,0.2c0.1,0.2,0.2,0.3,0.2,0.3c0.2,0.3,0.4,0.4,0.6,0.4c0.2,0,0.4-0.1,0.5-0.2
			c0.1-0.1,0.2-0.2,0.3-0.5c0.2-0.5,0.3-0.9,0.4-1.4c0-0.2,0.1-0.5,0.1-1l0.1-0.5c0-0.1,0-0.2,0-0.2c-0.1-0.3-0.2-0.5-0.5-0.6
			c-0.3-0.1-0.6,0-0.8,0.2c-0.1-0.5-0.1-0.8-0.1-0.8s-0.1-0.3-0.2-0.9l-0.1-0.5c0-0.1,0-0.1,0-0.2s0-0.1,0-0.2
			C15.9,39.9,15.7,39.8,15.4,39.8" class="colord6ce83 svgShape"></path><path fill="#fe9526" d="M18.4,42.7c-0.3,0-0.5,0.2-0.7,0.4c0,0-0.1,0.2-0.2,0.5l-0.2,0.9l-0.4,1l-0.2,0.5l-0.2,0.2l-0.2,0.2h-0.1
			l-0.1-0.1c-0.2-0.3-0.2-0.5-0.2-0.5c0-0.1,0-0.2-0.1-0.2v-0.5c0-0.1,0-0.2,0-0.2c-0.1-0.2-0.2-0.2-0.2-0.3
			c-0.2-0.2-0.4-0.2-0.7-0.2c-0.2,0.1-0.4,0.2-0.5,0.5c-0.1,0.1-0.1,0.2-0.1,0.5c0,0,0,0.2,0.1,0.6c0,0.2,0.2,0.6,0.4,1.2
			c0.3,0.5,0.5,0.7,0.5,0.8c0.2,0.1,0.2,0.1,0,0c0.1,0.1,0.2,0.2,0.2,0.2c0.1,0,0.1,0.1,0.2,0.1c0.2,0.1,0.2,0.1,0.4,0.1
			c0.5,0,1-0.2,1.4-0.5c0.2-0.2,0.3-0.3,0.5-0.5c0.1-0.1,0.2-0.3,0.4-0.7l0.5-1.2c0.2-0.4,0.2-0.7,0.2-0.8l0.2-0.4
			c0-0.1,0-0.2,0-0.2c0-0.2-0.1-0.4-0.2-0.5C18.8,42.8,18.6,42.7,18.4,42.7" class="colord6ce83 svgShape"></path><path fill="#fe9526" d="M18.5 38.6c-.4 0-.6.2-.8.6 0 .1 0 .1 0 .2v.5c0 0 0 .1 0 .2 0 .1 0 .1 0 .2 0 .1 0 .2 0 .2 0 0 0 .2-.1.5-.1.5-.1.7-.1.8l-.1.7c0 .5 0 .8-.1.8 0 0 0 .1-.1.2v.1c0 .1 0 .2 0 .3 0 0 0 .1 0 .2 0 .1 0 .1 0 .2l-.1.4c0 .2-.1.5-.2 1.3 0 .1 0 .2-.1.3s-.2.3-.2.5c0 .2.1.4.2.6.2.2.3.2.5.2.4 0 .7-.3.8-.8.1-.2.2-.5.2-.6.1-.8.2-1.2.2-1.3l.1-.4c0-.1 0-.2 0-.2 0-.1 0-.2.1-.2 0-.1 0-.2 0-.3.1-.2.1-.3.1-.4 0-.2 0-.4.1-.8v-.2c0-.2 0-.3.1-.5 0-.2 0-.5.1-.8l.1-.6c0-.3 0-.5 0-.5 0-.1 0-.2 0-.2v-.5C19.2 38.8 18.9 38.6 18.5 38.6M17.1 31.6c-2-.2-2.2 2-.4 6.6 1.5-2 1.7-4.2.5-6.6H17.1zM11.3 11.6C11.5 11.6 11.5 11.6 11.3 11.6M11.4 11.6C11.7 11.7 11.7 11.7 11.4 11.6M12.6 4.3c-.4.1-1.1.2-2 .5-.3.1-.5.3-.8.5C9.5 5.8 9.1 6.3 8.9 7 8.6 7.4 8.6 7.9 8.6 8.3c0 .4 0 .8.1 1.3 0 0 .1.3.2.8.2.5.4 1 .6 1.4.2.2.5.5 1.1.9l.8.3c.1 0 .1 0 .2 0h.2.1c-.2 0-.2 0 0 0h.2c.4 0 .8-.1 1.2-.4.3-.2.6-.4.9-.8.2-.2.3-.5.4-.7.1-.3.2-.5.2-.6.1-.3.2-.6.2-.8 0-.5 0-.8 0-1-.1-.5-.2-1.1-.3-1.7-.2-.4-.4-.5-.8-.5C13.3 6.7 13 6.8 13 7.2c0 .1 0 .2 0 .3.2.6.2 1.1.2 1.5 0 .1 0 .3 0 .7-.1.5-.2.8-.2 1.1 0 .1-.1.2-.3.4-.2.2-.3.3-.7.4-.1 0-.2 0-.5 0l-.5-.2L10.6 11c-.2-.2-.3-.5-.5-.8L9.9 9.4C9.8 9 9.8 8.6 9.8 8.4c0-.5.2-1.1.7-1.7.1-.2.2-.3.5-.5l1.4-.4c.3 0 .5-.1.5-.1.2-.1.3-.2.4-.4.1-.2.1-.5-.1-.7C13 4.5 12.8 4.3 12.6 4.3" class="colord6ce83 svgShape"></path><path fill="#fe9526" d="M13.4,11l-0.1,0.3 M14.1,4.4c-5.6,3.2-6.4,6.3-2.5,9.5C17.2,12,18,8.9,14.1,4.4L14.1,4.4z" class="colord6ce83 svgShape"></path><path fill="#595bd4" d="M24.2 4.9C24.2 4.9 24.2 5 24.2 4.9c0 0 .2.5.1.6-.1.2-.2.2-.4.5-.2.2-.2.5-.4.6-.2.2-.3.5-.5.7-.2.3-.3.5-.5.7-.2.2-.2.3-.3.5-.1.1-.1.2 0 .2s.1.1.1.1l0 0c.1 0 .2.1.2.1.1 0 .1 0 .1-.1.1-.1.1-.2.2-.3.1-.2.2-.4.4-.6.2-.2.3-.5.5-.8s.3-.4.4-.6c.2-.2.4-.5.5-.6.1-.1.2-.3.5-.4C25.2 5.5 24.3 4.9 24.2 4.9zM23 4.1L23 4.1c0 0 .2.5.1.6-.1.2-.2.2-.3.5-.2.2-.2.4-.3.5-.2.2-.3.4-.5.6s-.2.4-.3.5c-.1.2-.2.3-.2.4s-.1.2.1.2c.1 0 .1.1.1.1l0 0h.1c.2 0 .2 0 .2-.1s0-.1.1-.2.2-.3.2-.5c.1-.2.2-.5.4-.6s.2-.3.4-.5c.2-.2.3-.4.3-.5.1-.1.2-.3.5-.3C24 4.8 23.2 4.1 23 4.1z" class="color4d708e svgShape"></path><path fill="#595bd4" d="M22.6 3L22.6 3c0 0 .1.5 0 .6-.1.2-.2.3-.3.4C22.2 4.2 22 4.3 22 4.5c-.1.2-.2.4-.3.5-.1.2-.2.3-.3.5-.1.2-.2.2-.1.4C21.2 6 21.2 6 21.2 6l0 0c.1 0 .1 0 .2 0 .2 0 .2-.1.2-.2.1-.2.2-.2.2-.4C22 5.3 22 5.2 22.1 4.9c.1-.2.2-.4.3-.5.1-.2.2-.2.3-.4C22.8 4 22.9 3.9 23 3.9c0 0 .1 0 .2 0l0 0C23.3 3.9 22.7 3 22.6 3zM24.9 5.9L24.9 5.9c-.1 0 .2.5 0 .8-.2.2-.3.5-.4.8-.2.2-.3.5-.4.7-.2.2-.2.4-.3.5-.1.2-.2.2-.2.3-.2.1-.2.2-.2.2 0 .1-.1.1 0 .2.1.1.1.1.1.1l0 0 0 0c.1 0 .2 0 .2 0 0 0 .1 0 .1-.1s.1-.2.1-.2c0-.1.1-.2.2-.3s.2-.2.2-.4.2-.4.4-.7c.2-.2.3-.5.5-.8s.3-.5.6-.6C26.1 6.4 25.2 5.9 24.9 5.9zM26.7 6L26.7 6c0 0 .2.4.2.5-.1.2-.2.4-.4.6-.2.2-.3.6-.5.9-.2.3-.3.6-.5.9-.2.3-.3.5-.5.8-.2.2-.2.5-.3.5-.1.1-.2.2 0 .3.1.1.1.1.1.1l0 0c.1 0 .2 0 .2 0 .1 0 .1 0 .2-.1.1-.1.2-.2.2-.5.2-.2.2-.5.4-.7.2-.3.3-.6.5-.9.2-.3.4-.6.5-.9C27 7.2 27.1 7 27.3 6.8c.1-.2.2-.2.3-.2h.1l0 0C27.7 6.6 26.8 6 26.7 6zM26.9 40.1C26.9 40.1 26.8 40.1 26.9 40.1c-.1 0 .1.5-.1.8-.2.3-.4.5-.5.8s-.2.4-.3.5-.1.2 0 .4c.1.1.1.1.1.1l0 0h.1c.2 0 .2-.1.2-.2 0-.1.1-.2.2-.3.1-.2.2-.4.5-.7.2-.3.4-.5.7-.6C28 40.7 27.1 40.1 26.9 40.1zM26.8 37.4C26.8 37.4 26.8 37.5 26.8 37.4c0 0 .2.5.1.7-.2.2-.2.5-.4.7-.2.2-.2.5-.5.7-.2.2-.4.5-.5.8-.2.2-.2.4-.2.5.1.1.1.2.1.2l0 0h.1c.2 0 .2-.2.3-.3.1-.2.2-.5.4-.7.2-.2.3-.5.5-.8.2-.2.3-.5.4-.7.2-.2.2-.5.5-.5C28 38 27 37.4 26.8 37.4zM27.3 34.4L27.3 34.4c-.1 0 .2.5.1.7-.2.2-.2.5-.4.8s-.2.5-.4.6c-.2.2-.2.4-.4.6s-.2.4-.4.5c-.1.2-.2.3-.3.5-.1.1-.1.2 0 .3.1.1.1.1.1.1l0 0c0 0 0 0 .1 0 .2 0 .2-.1.2-.2 0-.1.1-.2.2-.3s.2-.3.3-.5c.2-.2.2-.5.4-.6.1-.2.2-.4.4-.6s.2-.5.4-.8c.2-.2.2-.5.5-.6C28.4 34.8 27.5 34.4 27.3 34.4zM26.8 31.8L26.8 31.8c0 0 .2.5.1.7-.2.2-.2.4-.3.6-.2.2-.2.4-.4.5-.2.2-.2.4-.3.5-.1.2-.2.3-.2.5-.1.2-.1.2-.2.3-.1.1-.1.2 0 .3.1.1.1.1.1.1l0 0h.1c.2 0 .2 0 .2-.1s.1-.2.2-.3c.1-.2.1-.3.2-.5.1-.2.2-.3.2-.5.1-.2.2-.4.3-.5.2-.2.2-.4.4-.5.1-.2.2-.5.5-.5C28 32.3 27 31.8 26.8 31.8zM28.4 40.8L28.4 40.8c0 0 .2.5 0 .7s-.3.5-.5.8c-.2.2-.4.5-.5.7-.2.2-.3.3-.3.5 0 .2 0 .2 0 .2l0 0c.1 0 .1 0 .2 0 .2 0 .2-.2.4-.3.2-.2.3-.4.5-.7.2-.2.4-.5.5-.8s.4-.5.6-.5C29.5 41.5 28.6 40.8 28.4 40.8zM28.6 43.3L28.6 43.3c0 0 .2.5 0 .7s-.3.5-.5.7c-.2.2-.3.4-.4.5s-.2.2-.1.4c.1.1.1.2.1.2l0 0c.1 0 .1 0 .2 0 .2 0 .2-.1.2-.2s.1-.3.2-.5c.2-.2.3-.4.5-.6.2-.2.3-.5.6-.5C29.7 43.9 28.9 43.3 28.6 43.3zM28.8 45L28.8 45c0 0 .2.5 0 .6s-.2.3-.4.5c-.1.2-.2.2-.3.4s-.2.2-.4.4c-.2.2-.2.3-.2.5.1.1.1.2.1.2l0 0c.1 0 .1 0 .2 0 .2 0 .2-.1.2-.2.1-.1.2-.2.3-.4.2-.2.2-.3.3-.4.1-.2.2-.2.3-.4.2-.2.3-.3.5-.4C29.8 45.8 28.9 45 28.8 45zM30.1 45.8L30.1 45.8c-.1 0 0 .6-.2 1-.2.3-.3.5-.5.8-.2.2-.3.5-.4.6s-.2.3-.2.5c.1.1.1.2.1.2l0 0H29c.2 0 .2-.1.3-.2.1-.2.2-.3.3-.5s.2-.5.4-.7c.2-.2.3-.5.7-.7C31.1 46.5 30.4 45.8 30.1 45.8zM39.3 38.5C39.2 38.5 39.2 38.5 39.3 38.5c0 0 .2.5 0 .7-.1.2-.2.4-.3.6-.1.2-.2.4-.3.5-.1.2-.2.2-.2.4.1.1.1.2.1.2l0 0c.1 0 .1.1.2.1.1 0 .2-.1.2-.2.1-.2.2-.3.3-.5.1-.2.2-.4.3-.6.1-.2.2-.4.4-.4h.1l0 0C40.2 39.2 39.4 38.5 39.3 38.5zM39.8 40L39.8 40c0 0 .2.4.1.5-.2.2-.2.4-.4.6s-.2.5-.4.7c-.2.2-.2.5-.3.6-.1.2-.2.3 0 .4.1.1.1.1.1.1l0 0H39c.2 0 .2-.1.2-.2.1-.2.1-.3.2-.5.1-.2.2-.5.3-.7.2-.2.2-.5.4-.6.1-.2.2-.2.3-.2.1 0 .1 0 .2 0l0 0C40.8 40.8 40 40 39.8 40zM40.4 41.9L40.4 41.9c0 0 .2.5 0 .7S40.1 43 40 43.2s-.2.4-.3.6-.2.3-.2.5c-.1.2-.1.2-.1.4.1.1.1.2.1.2l0 0h.1c.2 0 .2-.1.2-.2.1-.2.1-.2.2-.4.1-.2.2-.4.3-.5.1-.2.2-.4.3-.6s.3-.4.5-.5C41.4 42.6 40.5 41.9 40.4 41.9zM40.7 43.9L40.7 43.9c0 0 .2.5 0 .7-.2.2-.2.5-.4.7-.1.2-.2.4-.3.5-.1.2-.2.2-.1.5.1.1.1.2.1.2l0 0 0 0c.2 0 .2-.1.3-.2.1-.1.2-.2.2-.5.2-.2.2-.4.4-.6s.3-.5.5-.5C41.7 44.5 40.8 43.9 40.7 43.9z" class="color4d708e svgShape"></path><path fill="#595bd4" d="M40.9 45.6C40.8 45.6 40.8 45.7 40.9 45.6c0 0 .2.5.1.6-.1.2-.2.3-.3.3s-.2.2-.1.2c.1.1.1.1.1.1l0 0c.1.1.2.1.2.1.1 0 .1 0 .1-.1 0 0 .2-.1.2-.2s.2-.3.5-.4C42 46.3 41.1 45.6 40.9 45.6zM14 38.3L14 38.3c-.1 0 .1.6-.1.8-.2.2-.4.5-.5.6s-.2.2-.4.4c0 .1-.1.2-.1.2s0 0 .1 0c.1.1.2.1.2.1.2 0 .2-.1.4-.2s.2-.3.5-.5c.2-.2.4-.5.7-.7C15.1 38.8 14.3 38.3 14 38.3zM15.8 38.9L15.8 38.9c0 0 0 .5-.2.7-.2.2-.5.5-.6.8-.2.3-.3.5-.5.8s-.3.5-.4.6S14 42.1 14 42.4c.1.1.1.2.1.2s0 0 0-.1c.2 0 .3-.2.4-.5.1-.2.2-.3.3-.5.2-.2.3-.5.5-.7.2-.3.3-.5.5-.8.2-.2.3-.3.5-.3.1 0 .1 0 .2 0l0 0C16.6 39.8 15.9 38.9 15.8 38.9zM16.8 40.2L16.8 40.2c0 0 .1.5-.2.8-.2.2-.4.5-.6.8-.2.3-.5.7-.6 1-.2.3-.4.7-.5.9-.1.3-.2.5-.1.7.1.1.1.2.1.2l0 0c.2-.1.2-.2.3-.5s.2-.5.3-.8c.2-.3.3-.7.5-1 .2-.3.5-.6.7-.9.2-.2.4-.5.7-.5C17.8 40.8 17 40.2 16.8 40.2zM17.5 42L17.5 42c0 0 0 .5-.2.8-.2.3-.4.7-.5 1.1s-.4.7-.5 1c-.2.3-.2.6-.2.8.1.2.1.2.1.2l0 0c.2-.1.3-.3.4-.6.1-.3.2-.5.4-.9.2-.4.3-.7.5-1 .2-.3.4-.6.8-.6C18.5 42.8 17.7 42 17.5 42zM17.4 45.4C17.3 45.4 17.3 45.4 17.4 45.4c-.1 0 .2.5 0 .7s-.3.3-.5.5c-.2.2-.3.3-.3.5 0 .1 0 .2 0 .2l0 0c.1 0 .1 0 .2 0 .2 0 .2-.1.3-.2.2-.2.3-.3.4-.5.2-.2.3-.4.6-.5C18.5 46 17.6 45.4 17.4 45.4zM32.3 20.8C32.3 20.8 32.2 20.8 32.3 20.8c-.1 0 .1.5-.1.9-.2.3-.3.6-.5.8-.2.2-.3.5-.4.7-.2.2-.2.3-.2.5.1.1.1.2.1.2l0 0h.1c.2 0 .2-.1.3-.2.1-.2.2-.4.3-.6.2-.2.3-.5.5-.8.2-.3.3-.6.6-.7C33.3 21.4 32.5 20.8 32.3 20.8zM32.6 23L32.6 23c0 0 .3.4.2.5s-.2.5-.4.7c-.2.3-.2.5-.4.8-.2.2-.3.5-.5.7-.2.2-.2.4-.3.5-.1.2-.2.3-.1.4.1.1.1.1.1.1l0 0c.1 0 .1 0 .1 0 .2 0 .2-.1.2-.2s.2-.2.2-.5c.1-.2.2-.5.4-.7.2-.2.3-.5.5-.8.2-.3.2-.5.4-.7.2-.2.3-.4.5-.4C33.7 23.5 32.7 23 32.6 23zM33.9 24.2L33.9 24.2c0 0 .2.5-.1.8-.2.2-.4.5-.5.8-.2.3-.4.7-.6 1s-.4.6-.5.8-.3.5-.5.5c-.2.1-.2.2-.2.4 0 .1 0 .2.1.2l0 0c.1 0 .2.1.2.1.1 0 .2-.1.2-.2.1-.2.2-.2.4-.5.2-.2.3-.5.5-.8.2-.3.4-.6.6-1 .2-.3.4-.6.5-.8s.4-.5.7-.5C35 24.8 34.2 24.2 33.9 24.2zM34.5 26.1L34.5 26.1c0 0 .2.5 0 .7-.2.2-.4.5-.5.8s-.3.5-.5.8c-.2.3-.4.5-.5.8-.2.3-.4.6-.5.8-.2.2-.2.2-.2.4 0 .1 0 .2.1.2l0 0c.1.1.2.1.2.1.1 0 .2-.1.2-.2.1-.2.2-.4.5-.7.2-.3.4-.6.5-.8.2-.3.4-.6.5-.8.2-.3.3-.5.5-.8.2-.2.4-.5.6-.5C35.5 26.7 34.7 26.1 34.5 26.1zM32.2 18.9L32.2 18.9c0 0 .1.5-.1.8-.2.2-.3.5-.5.7s-.2.4-.3.5c-.1.2-.2.3 0 .5.1.1.1.1.1.1l0 0h.1c.2 0 .2-.2.2-.2 0-.1.2-.2.2-.4.1-.2.2-.4.4-.6.2-.2.3-.5.6-.5C33.3 19.6 32.4 18.9 32.2 18.9zM36.5 10.1C36.4 10.1 36.4 10.1 36.5 10.1c-.1 0 .1.5-.1.8-.2.3-.3.5-.5.8-.2.2-.3.5-.5.8-.2.2-.3.4-.4.5C35 13.1 35 13.1 35 13.3c.1.1.1.2.1.2l0 0c.1.1.2.1.2.1.1 0 .1 0 .2-.1.1-.1.2-.2.4-.5.2-.2.3-.5.5-.8.2-.2.3-.5.5-.8.2-.2.4-.5.7-.6C37.6 10.7 36.7 10.1 36.5 10.1zM35.9 8.9L35.9 8.9c0 0 .2.5 0 .7-.2.2-.4.5-.5.7S35 10.8 34.8 11c-.2.2-.3.4-.4.6-.2.2-.2.3-.1.5.1.1.1.2.1.2l0 0c.2 0 .2-.1.3-.2.1-.2.2-.3.3-.5s.3-.5.5-.7c.2-.2.3-.5.5-.7.2-.2.4-.5.6-.5C37 9.5 36.1 8.9 35.9 8.9zM35.2 7.8C35.2 7.8 35.2 7.8 35.2 7.8c0 0 .1.5-.1.8C35 8.8 34.8 9 34.7 9.2c-.2.2-.2.4-.3.5-.1.2-.2.3-.2.4-.1.2-.2.2-.2.4-.1.2-.2.2-.2.4.1.1.1.2.1.2l0 0c.1 0 .1 0 .2 0 .2 0 .2-.1.2-.2s.2-.2.2-.4c.1-.1.2-.2.2-.4s.2-.3.3-.5c.1-.2.2-.4.4-.6s.3-.5.6-.5C36.1 8.6 35.4 7.8 35.2 7.8z" class="color4d708e svgShape"></path><path fill="#595bd4" d="M34.8 6.7L34.8 6.7c0 0 .2.5 0 .6s-.2.2-.3.3c-.1.1-.2.2-.2.3C34.2 8 34.2 8 34.2 8.2c.1.1.1.2.1.2l0 0c.1 0 .2 0 .2 0 .1 0 .2-.1.2-.1.1-.1.1-.2.2-.2.1-.1.2-.2.2-.3.1-.1.2-.2.5-.2l0 0 0 0C35.8 7.4 34.9 6.7 34.8 6.7zM37.4 10.6L37.4 10.6c0 0 .2.4.1.5-.1.2-.2.3-.3.5s-.2.5-.4.8-.3.6-.5.8c-.2.2-.2.5-.4.6s-.2.3-.2.5c0 .1 0 .2 0 .2l0 0h.1c.2 0 .2-.2.3-.3.1-.2.2-.4.4-.5.2-.2.2-.5.4-.8s.3-.6.5-.8c.2-.2.2-.5.4-.6.2-.1.2-.2.2-.2 0 0 .1 0 .2.1l0 0C38.2 11.4 37.5 10.6 37.4 10.6zM39.5 10.2C39.4 10.2 39.4 10.2 39.5 10.2c0 0 .2.4.1.5-.2.2-.2.3-.3.5-.1.2-.2.4-.4.6s-.2.5-.4.8c-.2.2-.3.5-.5.8s-.3.5-.4.6-.2.2-.2.4c0 .1 0 .2 0 .2l0 0c.1.1.2.1.2.1.1 0 .2-.1.2-.2.1-.2.2-.3.4-.5.2-.2.3-.5.5-.8.2-.3.3-.5.4-.8.2-.2.2-.5.4-.7.2-.2.2-.4.3-.5.1-.1.2-.2.3-.2.1 0 .1 0 .2 0l0 0C40.3 11 39.5 10.2 39.5 10.2z" class="color4d708e svgShape"></path><path fill="#595bd4" d="M40.2 10.8C40.1 10.8 40.1 10.8 40.2 10.8c-.1 0 .2.5 0 .8-.2.3-.3.6-.5.9-.2.2-.2.4-.2.5.1.1 0 .2.1.2l0 0c.1 0 .1 0 .2 0 .2 0 .2-.1.3-.2.2-.2.3-.5.5-.8.2-.3.4-.7.7-.8C41.2 11.1 40.5 10.8 40.2 10.8zM10.8 9.4L10.8 9.4c0 0 .2.5.1.6-.2.2-.3.5-.5.8-.2.3-.3.6-.4.9-.2.3-.2.6-.3.9-.1.3-.1.5.1.5.1.1.2.1.2.1l0 0c.2-.1.2-.2.2-.4 0-.2.1-.5.2-.8.1-.3.2-.6.4-.8.2-.3.3-.5.5-.8.2-.2.3-.4.5-.4C11.9 10.1 11 9.4 10.8 9.4zM10 7.8L10 7.8c0 0 .2.3.2.5C10.1 8.4 10 8.5 9.9 8.6S9.7 8.9 9.6 9.2C9.5 9.4 9.5 9.5 9.4 9.8s-.2.4-.2.6c0 .2-.1.5-.1.6s0 .3.1.4c.1 0 .2.1.2.1l0 0 0 0c.2-.1.2-.2.2-.2s0-.2.1-.5c.1-.2.1-.4.2-.5.1-.2.2-.4.2-.6.1-.2.2-.3.3-.5.1-.2.2-.3.3-.5.1-.1.2-.2.4-.2l0 0 0 0C11.1 8.4 10.2 7.8 10 7.8zM9.7 6L9.7 6c0 0 .2.5.1.7C9.6 6.9 9.5 7.1 9.4 7.4 9.2 7.7 9.2 8 9 8.2 8.9 8.4 8.8 8.6 8.7 8.8 8.6 8.9 8.5 9.2 8.4 9.2 8.3 9.4 8.3 9.5 8.3 9.6c.1.1.1.1.1.1l0 0h.1c.2 0 .2-.1.2-.2.1-.1.1-.2.2-.4C9 9 9.2 8.8 9.2 8.6c.1-.2.2-.5.4-.8S9.9 7.3 10 7s.2-.5.5-.5C10.8 6.6 9.8 6 9.7 6z" class="color4d708e svgShape"></path><path fill="#595bd4" d="M11.6 10.2C11.5 10.2 11.5 10.2 11.6 10.2c-.1 0 .2.4.2.5-.1.2-.2.5-.3.7-.1.2-.2.5-.2.7-.1.2-.2.4-.2.6C11 13 11 13 11.1 13.2c.1 0 .1.1.2.1l0 0 0 0c.2-.1.2-.2.2-.3 0-.2.1-.3.1-.5.1-.2.2-.4.2-.7.1-.2.2-.5.3-.7.2-.2.2-.5.5-.5C12.7 10.6 11.8 10.2 11.6 10.2zM13.4 10.6L13.4 10.6c0 0 .3.3.2.5-.1.2-.2.4-.3.5-.2.2-.2.5-.4.8-.2.2-.2.5-.3.6-.1.2-.2.2-.2.4 0 .1 0 .2 0 .2l0 0c.1.1.2.1.2.1.1 0 .2-.1.2-.2.2-.2.2-.4.3-.6.1-.2.2-.5.4-.8.2-.2.2-.5.4-.6.2-.2.2-.4.5-.5C14.5 11 13.6 10.6 13.4 10.6z" class="color4d708e svgShape"></path><path fill="#595bd4" d="M14.6 10.5C14.5 10.5 14.5 10.5 14.6 10.5c-.1.1.2.6 0 1s-.3.8-.4 1C14.2 12.7 14 12.8 14 13c0 .1 0 .2 0 .2l0 0c.1.1.1.1.2.1.2 0 .2-.1.3-.2.2-.2.2-.5.4-.9.2-.4.3-.8.6-1C15.7 10.9 14.9 10.5 14.6 10.5zM20.6 21.4L20 22.1l-.4 1.1-.3 1.3L19 25.9l-.2 1.4-.2 1.3-.1 1.3.1 1.3.2 1.3.1 1.3V35l.2 1.3v1.3 1.3l-.1 1.3v1.4l.2 1.3.2 1.3-.1-.2-.2-.4.2 1.4.4 1.3.7 1.3 1.1 1.1 1.8.2 1.2-1 .8-1.2.6-1.3.4-1.4.2-1.4L26 41.1l.2-1.1.2-1.4v-1.2l.1-1.4v-.6l0-2-.2-1.9-.3-.9-.3.2-.2.8-.1 1-.1 1.3L25.2 35l-.1 1.5-.2 1.6.1 1.4-.2 1.6.1 1.3-.2 1.4-.2 1-.5 1.1-.7 1-.8.8-.6.1-.6-.3-.7-1-.5-1.1L19.9 44l-.2-1.3-.1-1.3v-1.2l.1-1.3.1-1.3v-1.4l-.2-1.5-.1 1L19.4 35v-1.3l-.1-1.4-.2-1.2-.1-1.3.1-1.2.2-1.3.2-1.2.3-1.3.3-1.3.3-1.5L20.6 21.4z" class="color4d708e svgShape"></path><path fill="#595bd4" d="M32,18.1l-0.4,0.1L31.2,19l-0.3,1.1l-0.2,1.3l-0.2,1.5v1.4l0.1,1.7l0.2,1.4v1.3l-0.1,1.3l-0.1,1.4v1.4
		l-0.1,1.3v1.4l-0.1,0.9l-0.2,1.3l-0.1,1.4l0.1,1.3v1.4l0.1,1.3l-0.1,1.4l-0.1,1.1v0.9l0.2-0.5L30.2,47l-0.5,1l-0.7,0.5l-0.7-0.2
		l-0.6-1l-0.3-1.1l-0.2-1.3L27,43.6l-0.5-1.5h-0.3l0.2,1.3l0.2,1.2l0.2,1.4l0.3,1.4l0.6,1.1l1.1,0.7l1.3-0.6l0.7-1.2l0.3-1.3
		l0.2-1.4v-1.3v-1.3l-0.2-1.3l-0.1-1.3l0.1-1.3v1l0.2-0.9l0.2-1.3l0.2-1.3l0.2-1.3l0.1-1.3v-1.4l0.1-1.3l0.1-1.4v-1.4L32,26.6
		l-0.1-1.4v-1.3v-1.2l0.1-1.5v-1.9L32,18.1z" class="color4d708e svgShape"></path><path fill="#595bd4" d="M22.3 12.7l-1.4.2-1.3.4-1.4.6L17 14.7l-.9 1-.9 1.1-.2.7.6-.8 0 0L15 18l-.4 1.4-.5 1.1-.2 1.4-.2 1.4v1.4 1.3 1.4l.4 1.4.6 1.3 1 1.1 2 .8 1.3-.4H18l-1.2-.4-1-.8L15 29.1l-.5-1.4-.2-1.3v-1.4-1.3l.1-1.3.2-1.3.4-1.2.3-1.3.5-1.2.8-1 .8-1 .9-.8 1.1-.6 1.2-.4 1.2-.3 1.4.1 1.3.1-.8.1-.2.2 1.2.1h1.3l1.3.2 1.2.2 1.2.2 1.1.4 1.2.5.8.6.8 1 .7 1.1.5 1.1.5 1.3.2.9.2 1.3.2 1.3v1.3 1.2l-.4 1.8-.9 1.5-1.2.9L32.7 31l.4.2.8-.1.9-.4 1.1-.8.8-1.3.4-1.4.2-1.7v-1.6L37 22.3l-.2-1.5-.5-1.3-.2-1.4L35.5 17l-.8-1.1-.9-1.1L32.5 14l-1.3-.5-1.4-.4-.9.1L27.6 13l-1.3-.2H25l-1.4-.1L22.3 12.7zM9.1 23.8l-.6 1L8 25.9l-.4 1.3-.4 1.4L7 29.8l-.2 1.2-.2 1.3-.2 1.3L6.4 35l-.1 1.3-.1 1.3-.1 1.4.2 1.3-.1 1.3-.1-.6-.2.8L6.3 43l.3 1.3L7 45.6l.7 1.2L8.9 48l1.9-.1 1.3-1.1.5-1.3.4-1.4.2-1.3.2-1.4v-.2l.2-2.2-.2-1.7L13 37.1l-.2.8-.2 1-.2 1.2-.3 1.5-.3 1.5-.3 1.4-.4 1.2-.7.8-.9.3-.5-.3-.6-.9L8 44.5l-.4-.9-.3-1.3-.2-1.1v-1.4-1.2l.1-1.4L7.3 36l.1-1.3-.2.5v-1.1l.2-1.2.2-1.4.2-1.3.2-1.3.3-1.2.3-1.3.5-1.3L9.1 23.8zM19.7 41.4L19 42.2l-.2 1.5L18.7 45l-.5 1.1L17.6 47l-.7.7-.7-.2-.7-.8L15 46.3l-.3-1.1L14.4 44l-.2-1.3-.5.8.2 1.4.3 1.2.7 1.2 1.1.9 1.3.1.7-.2 1.1-.9.7-1.4.2-1.4.1-1.4V43L19.7 41.4z" class="color4d708e svgShape"></path><path fill="#595bd4" d="M9.6 14.8L8 15l-1.4.6-1.2.8-.9 1.1-.8 1.2-.4 1-.6 1.2-.5 1.3L2 23.5l-.3 1.4v1.4l.2 1.4L2 27.3l.2 1.3.2 1.4L3 31.2l.6 1.3 1 1.1 1.8.5 1.4-1-.9.2-1.3.2-1.1-.9-.7-1.1-.5-1.2L3 29.2l-.2-1.4-.2-1.2-.1-1.3.2-1.2.1-1.4.3-.5h.2l.5-1.1L4.5 20l.6-1.1L6 17.9 6.7 17l1-.5 1.1-.4L10 16l1.1.2 1.2.4 1.8.2.5-.3-.7-.5-1.1-.5-1.4-.5L9.6 14.8zM32 33.9l-.5 1.1-.2 1.4-.2 1.4-.1 1.3v1.4l.2 1.3.1 1.3.3 1.3.6 1.2.1.8h-.2l.5 1.4 1.1 1.1 1.8-.1 1.3-1.1.6-1.2.2-1.4.1-1.4.2-1.3v-.7l-.1-2-.5-.4L37 40.2l-.3 1.1-.2 1.4-.2 1.7-.2 1.2-.5 1.1-.6.7-.9.3-.5-.1-.6-1-.3-1.3-.5-1.2L32.2 43v-1.2L32 41.7l-.2-1.1 0-1.2.1-1.3.1-1.3.2-1.3.3-1.4L32 33.9zM42.6 23.9l-.4.3L42 25.2l-.3 1.1-.2 1.5v1.5l.2 1.6.2 1.4.1 1.3v1.3l-.1 1.3v1.4 1.3l.2 1.1v1.3L42 42.3l-.2 1.3-.2 1.1-.4 1.1-.5 1.2-.5 1.1.4-.3-.5.7L40.2 48l-.5-1.2-.3-1.3-.2-1.2L39 43l-.1-1.4-.2-1.5-.2-.6-.2 1.2.1 1.3.1 1.4.1 1.3.2 1.3.3 1.3.5 1.2 1.2.5.7-1.2.5-1.2.4-1.3.2-1.4.2-1.2.1-.4.2.2.2-1.3.1-1.4v-1.2-1.4l.1-1.2v-1.4l-.1-1.3L43 32l-.2-1.4-.1-1.2v-1.3-.8l.1-2.1L42.6 23.9z" class="color4d708e svgShape"></path><path fill="#595bd4" d="M39.7 16.4l-1.9.2L36.1 17l.1.4.9.2 1.1.1h1.4l1.4.1 1.4.2 1.2.2.9.7.7.9.5 1.1.5 1.1.5.9.3 1.2.2 1.2v1.3l.2 1.2-.2 1.2L47 30.2l.3-.3L47 31.1l-.5 1.1-.8 1.1-.8.9-.5.3-.5-.5-.5-1.4-.4-.5.2 1.3.4 1.2 1.1.4 1.1-.8.8-1.1.8-1.1.5-1.3.3-1.3.2-1.3-.1-1.4-.2-1.2L48 24.2l.4.8-.2-1.3-.2-1.2-.4-1.4L47 19.8l-.8-1.3-1-1.1-1.7-.8-1.1-.1-1.4-.1L39.7 16.4zM36.2 5.3h.3L38 5.5l1.3.2L40.6 6l1.1.8L42 7.7 42 8.8l-.3 1.1L41.1 11 40.5 12l-.7.7-1 .7-1.1.5-1.1.3-.9-.4-.6-.7-.5-1.1-.1.5-.4-1.1-.2-1.2L34.2 9l.3-1.3L35 6.7l.7-1L36.2 5.3zM37.5 4.4l-2 .2-.5.6.5.1 0 0-.2.1-.8 1.1-.5 1.2-.3 1.3-.2 1.4.2 1.3.4 1.3.7 1.1 1.1.8 1.4.1 1.2-.5.5-.2.1.2 1.1-.7 1.1-.9.9-1.1.7-1.2.4-1.4.2-1.6-.7-1.4-1.1-.9-1.5-.6-1.3-.2L37.5 4.4zM25.2.8h-1.2l-1.2.5-1 1.1-.5 1.1-.4 1.3-.1 1.4L21 7.4l.6 1.2.8 1.1 1.1.7 1 .5L24.2 11l1.5.1 1.4-.5 1.1-.9 1-1.3L29.6 7l.2-1.4-.3-1.3-.4-1.5-1.2-1.1-2.1-.3-1.5.3L24.5 2l1 .2 1.1.3 1 .4.5 1 .3 1.3-.1 1.2L28 7.6l-.5.9-.8.8-.8.5-1.1.2-1-.4L23 9.1l-.7-1-.5-1-.2-.5-.2-.4V5.1l.3-1.1.5-1.2.6-.8.9-.5 1.4-.2V.8zM12.3 4.6l1.4.2 1.3.3.6.8L15.8 7v1.1l-.1 1.4.1 1.1-.2 1.1L15 12.5l-1 .6-1.1.4h-1.1l-.9-.4-.8-.5.1.2-.7-1-.4-1.1L8.6 9.5 8.4 8.4l.3-1.1L9 6.6l.5-.2.8-.7 1-.8L12.3 4.6zM13 3.4l-1.6.1-1.1.7L9.5 5.1l0 0L8.7 5.9 8.2 7.1 7.8 8.5 8 9.8l.5 1.3.5 1.2.8 1.1 1.1.8 1.3.2 1.4-.2 1.2-.6.9-.5-.3.5 1.1-1.1.5-1.4L17 9.8l.1-1.3V7l-.4-1.5-1.1-1.4-1.2-.5L13 3.4z" class="color4d708e svgShape"></path></svg>